# xmcd CD database file
# Copyright (C) 1995-1998 Ti Kan
#
# Track frame offsets:
#	150
#	27177
#	44365
#	64022
#	76040
#	92320
#	119253
#	131198
#	144833
#	191582
#	205992
#	233444
#	250797
#
# Disc length: 3647 seconds
#
# Revision: 1
# Processed by: cddbd v1.4b41PL1 Copyright (c) Steve Scherf et al.
# Submitted via: CDex 1.30Release
#
DISCID=a00e3d0d
DTITLE=Bob Brozman - Slide a go go
DYEAR=1993
DGENRE=Blues
TTITLE0=Whoopee Blues
TTITLE1=Cold and Broke
TTITLE2=Tell Me Something
TTITLE3=Moana Chimes
TTITLE4=Stick To The Promise
TTITLE5=I Don't Know
TTITLE6=Down The Road
TTITLE7=Enjoy Yourself
TTITLE8=Animal Dreams
TTITLE9=Highway 49 Blues
TTITLE10=Telephone Arguing Blues
TTITLE11=Le Mood Des Martyrs
TTITLE12=La Vie En Rose
EXTD=YEAR: 1993 ID3G:   0
EXTT0=
EXTT1=
EXTT2=
EXTT3=
EXTT4=
EXTT5=
EXTT6=
EXTT7=
EXTT8=
EXTT9=
EXTT10=
EXTT11=
EXTT12=
PLAYORDER=
